<svg id="bath_room" xmlns="http://www.w3.org/2000/svg" width="20" height="20" viewBox="0 0 20 20">
  <rect id="Rectangle_26" data-name="Rectangle 26" width="20" height="20" fill="#87899e" opacity="0"/>
  <g id="bathtub" transform="translate(2 -60)">
    <g id="Group_27" data-name="Group 27" transform="translate(0 64)">
      <path id="Path_25" data-name="Path 25" d="M15,67.333h-.333v-2a1.333,1.333,0,0,0-2.667,0v.334a.333.333,0,0,0,.333.334h0a.333.333,0,0,0,.334-.333v-.335a.667.667,0,0,1,1.333,0v2H1a1,1,0,0,0-.333,1.939v1.061a4.33,4.33,0,0,0,2,3.646v1.688A.333.333,0,0,0,3,76h.667a.333.333,0,0,0,.3-.184l.586-1.173A4.362,4.362,0,0,0,5,74.667h6a4.355,4.355,0,0,0,.449-.023l.586,1.173a.333.333,0,0,0,.3.184H13a.333.333,0,0,0,.333-.333V73.979a4.33,4.33,0,0,0,2-3.646V69.272A1,1,0,0,0,15,67.333ZM4,68H7.333v3.273L4,70.718Zm-3.333.333A.334.334,0,0,1,1,68H3.333v.667H1A.334.334,0,0,1,.667,68.333Zm2.794,7H3.333v-1a4.3,4.3,0,0,0,.538.18Zm9.206,0h-.127l-.411-.821a4.307,4.307,0,0,0,.538-.18Zm2-5A3.671,3.671,0,0,1,11,74H5a3.671,3.671,0,0,1-3.667-3.667v-1h2V71a.333.333,0,0,0,.279.329l4,.667a.343.343,0,0,0,.055,0A.333.333,0,0,0,8,71.667V69.333h6.667v1ZM15,68.667H8V68h7a.333.333,0,1,1,0,.667Z" transform="translate(0 -64)" fill="#87899e"/>
    </g>
  </g>
</svg>
