<svg id="connect" xmlns="http://www.w3.org/2000/svg" width="32" height="32" viewBox="0 0 32 32">
  <path id="Path_6064" data-name="Path 6064" d="M0,0H32V32H0Z" fill="none"/>
  <path id="Path_6065" data-name="Path 6065" d="M24.667,17.667l-4-4H11.333A1.333,1.333,0,0,1,10,12.333v-8A1.333,1.333,0,0,1,11.333,3h12a1.333,1.333,0,0,1,1.333,1.333V17.667" transform="translate(3.333 1)" fill="none" stroke="#2a6fdb" stroke-linecap="round" stroke-linejoin="round" stroke-width="1.5"/>
  <path id="Path_6066" data-name="Path 6066" d="M17.667,16.667v2.667a1.333,1.333,0,0,1-1.333,1.333H7l-4,4V11.333A1.333,1.333,0,0,1,4.333,10H7" transform="translate(1 3.333)" fill="none" stroke="#2a6fdb" stroke-linecap="round" stroke-linejoin="round" stroke-width="1.5"/>
</svg>
