<svg xmlns="http://www.w3.org/2000/svg" xmlns:xlink="http://www.w3.org/1999/xlink" width="78" height="78" viewBox="0 0 78 78">
  <defs>
    <linearGradient id="linear-gradient" x1="0.5" x2="0.5" y2="1" gradientUnits="objectBoundingBox">
      <stop offset="0" stop-color="#fff"/>
      <stop offset="0.319" stop-color="#fff" stop-opacity="0.8"/>
      <stop offset="0.661" stop-color="#fff" stop-opacity="0.6"/>
      <stop offset="1" stop-color="#fff" stop-opacity="0.4"/>
    </linearGradient>
    <filter id="Ellipse_24" x="0" y="0" width="78" height="78" filterUnits="userSpaceOnUse">
      <feOffset dy="3" input="SourceAlpha"/>
      <feGaussianBlur stdDeviation="3" result="blur"/>
      <feFlood flood-opacity="0.161"/>
      <feComposite operator="in" in2="blur"/>
      <feComposite in="SourceGraphic"/>
    </filter>
  </defs>
  <g id="Group_14405" data-name="Group 14405" transform="translate(-149 -671)">
    <g transform="matrix(1, 0, 0, 1, 149, 671)" filter="url(#Ellipse_24)">
      <g id="Ellipse_24-2" data-name="Ellipse 24" transform="translate(9 6)" stroke="#fff" stroke-width="1" fill="url(#linear-gradient)">
        <circle cx="30" cy="30" r="30" stroke="none"/>
        <circle cx="30" cy="30" r="29.5" fill="none"/>
      </g>
    </g>
    <path id="Icon_ionic-ios-arrow-forward" data-name="Icon ionic-ios-arrow-forward" d="M18.892,15.764,11.648,8.526a1.362,1.362,0,0,1,0-1.932,1.379,1.379,0,0,1,1.938,0l8.207,8.2a1.365,1.365,0,0,1,.04,1.886L13.592,24.94a1.368,1.368,0,0,1-1.938-1.932Z" transform="translate(171.781 691.232)" fill="#040920"/>
  </g>
</svg>
