<svg id="list-ads" xmlns="http://www.w3.org/2000/svg" width="32" height="32" viewBox="0 0 32 32">
  <path id="Path_6063" data-name="Path 6063" d="M0,0H32V32H0Z" fill="none"/>
  <path id="Path_6064" data-name="Path 6064" d="M21,27.083H7.667A3.421,3.421,0,0,1,4.25,23.667v-16A3.421,3.421,0,0,1,7.667,4.25h2.667a.75.75,0,0,1,0,1.5H7.667A1.919,1.919,0,0,0,5.75,7.667v16a1.919,1.919,0,0,0,1.917,1.917H21a1.919,1.919,0,0,0,1.917-1.917v-16A1.919,1.919,0,0,0,21,5.75H18.333a.75.75,0,0,1,0-1.5H21a3.421,3.421,0,0,1,3.417,3.417v16A3.421,3.421,0,0,1,21,27.083Z" transform="translate(1.667 1.667)" fill="#2a6fdb"/>
  <path id="Rectangle_4454" data-name="Rectangle 4454" d="M2-.75H6A2.753,2.753,0,0,1,8.75,2V3.333A2.753,2.753,0,0,1,6,6.083H2A2.753,2.753,0,0,1-.75,3.333V2A2.753,2.753,0,0,1,2-.75ZM6,4.583a1.251,1.251,0,0,0,1.25-1.25V2A1.251,1.251,0,0,0,6,.75H2A1.251,1.251,0,0,0,.75,2V3.333A1.251,1.251,0,0,0,2,4.583Z" transform="translate(12 4)" fill="#2a6fdb"/>
  <path id="Path_6065" data-name="Path 6065" d="M11.667,18.083a.748.748,0,0,1-.53-.22L8.47,15.2A.75.75,0,0,1,9.53,14.136l2.136,2.136,4.8-4.8A.75.75,0,0,1,17.53,12.53L12.2,17.864A.748.748,0,0,1,11.667,18.083Z" transform="translate(3 4)" fill="#2a6fdb"/>
</svg>
