<svg xmlns="http://www.w3.org/2000/svg" xmlns:xlink="http://www.w3.org/1999/xlink" width="40" height="47.863" viewBox="0 0 40 47.863">
  <defs>
    <linearGradient id="linear-gradient" x1="0.5" x2="0.5" y2="1" gradientUnits="objectBoundingBox">
      <stop offset="0" stop-color="#fff"/>
      <stop offset="1" stop-color="#becbde"/>
    </linearGradient>
  </defs>
  <path id="logo_b" d="M5207.331,12296.777h-25.637a5.152,5.152,0,0,1-.507-2.332v-.481a4.786,4.786,0,0,1,1.59-3.734,6.374,6.374,0,0,1,4.387-1.422h10.8a.754.754,0,0,0,.577-.266.861.861,0,0,0,.242-.6v-2.265a.824.824,0,0,0-.819-.819h-7.277a6.957,6.957,0,0,1-4.337-1.085,4.108,4.108,0,0,1-1.351-3.4v-5.014a5.191,5.191,0,0,1,1.206-3.687,4.491,4.491,0,0,1,3.421-1.277h1.446a5.4,5.4,0,0,1,3.807,1.543,1.372,1.372,0,0,0,.791.3,1.063,1.063,0,0,0,.752-.35l1.061-1.252a1.039,1.039,0,0,0-.05-1.593,10.7,10.7,0,0,0-2.7-1.782,7.672,7.672,0,0,0-3.373-.819h-1.928a8.02,8.02,0,0,0-6.193,2.339,8.906,8.906,0,0,0-2.146,6.24v5.206a6.346,6.346,0,0,0,2.362,5.155,8.872,8.872,0,0,0-4.553,2.989,7.837,7.837,0,0,0-1.664,4.963v2.122a8.522,8.522,0,0,0,.1,1.318h-9.953l-.05-36.607,20-11.256,20,11.256v36.607Z" transform="translate(-5167.331 -12248.914)" fill="url(#linear-gradient)"/>
</svg>
