<svg xmlns="http://www.w3.org/2000/svg" xmlns:xlink="http://www.w3.org/1999/xlink" width="32" height="32" viewBox="0 0 32 32">
  <defs>
    <linearGradient id="linear-gradient" x1="0.5" x2="0.5" y2="1" gradientUnits="objectBoundingBox">
      <stop offset="0" stop-color="#2acfdb"/>
      <stop offset="0.339" stop-color="#39b1de"/>
      <stop offset="1" stop-color="#2a6fdb"/>
    </linearGradient>
  </defs>
  <g id="logo" transform="translate(-156 -76)">
    <rect id="Rectangle_4436" data-name="Rectangle 4436" width="32" height="32" rx="10" transform="translate(156 76)" fill="#fff" opacity="0.36"/>
    <path id="logo_b" d="M5189.514,12275.459H5175.3a2.854,2.854,0,0,1-.281-1.293v-.267a2.655,2.655,0,0,1,.882-2.071,3.534,3.534,0,0,1,2.433-.789h5.987a.42.42,0,0,0,.32-.146.477.477,0,0,0,.134-.334v-1.257a.459.459,0,0,0-.454-.455h-4.036a3.856,3.856,0,0,1-2.405-.6,2.278,2.278,0,0,1-.749-1.884v-2.78a2.874,2.874,0,0,1,.668-2.044,2.489,2.489,0,0,1,1.9-.709h.8a3,3,0,0,1,2.111.855.759.759,0,0,0,.438.167.586.586,0,0,0,.417-.194l.589-.693a.577.577,0,0,0-.028-.884,5.9,5.9,0,0,0-1.5-.988,4.253,4.253,0,0,0-1.871-.455h-1.069a4.447,4.447,0,0,0-3.435,1.3,4.937,4.937,0,0,0-1.189,3.46v2.888a3.518,3.518,0,0,0,1.31,2.859,4.906,4.906,0,0,0-2.525,1.657,4.345,4.345,0,0,0-.923,2.753v1.177a4.645,4.645,0,0,0,.056.73h-5.52l-.028-20.3,11.09-6.243,11.093,6.243v20.3Z" transform="translate(-5006.422 -12171.278)" fill="url(#linear-gradient)"/>
  </g>
</svg>
