<svg xmlns="http://www.w3.org/2000/svg" width="56" height="56" viewBox="0 0 56 56">
  <g id="pin" transform="translate(-166.008 -378.008)">
    <rect id="Rectangle_6540" data-name="Rectangle 6540" width="56" height="56" transform="translate(166.008 378.008)" fill="#fff" opacity="0"/>
    <path id="Subtraction_1" data-name="Subtraction 1" d="M15.479,43.591c-.535,0-1.752-1.019-3.339-2.8a61.457,61.457,0,0,1-5.218-6.9,58.243,58.243,0,0,1-4.81-8.759A22.091,22.091,0,0,1,0,16.761,17.105,17.105,0,0,1,4.837,4.66,15.14,15.14,0,0,1,15.479,0,15.14,15.14,0,0,1,26.12,4.66a17.1,17.1,0,0,1,4.837,12.1,22.089,22.089,0,0,1-2.112,8.377,58.263,58.263,0,0,1-4.81,8.759,61.55,61.55,0,0,1-5.219,6.9C17.23,42.573,16.014,43.591,15.479,43.591Zm0-36.494a7.349,7.349,0,1,0,7.348,7.348A7.358,7.358,0,0,0,15.479,7.1Z" transform="translate(178.529 384.482)" fill="#2a6fdb"/>
  </g>
</svg>
