<svg id="share" xmlns="http://www.w3.org/2000/svg" width="24" height="24" viewBox="0 0 24 24">
  <path id="Path_59985" data-name="Path 59985" d="M12.3,3.749h0a1.979,1.979,0,0,1,1.221.424l7.99,6.309a1.929,1.929,0,0,1,0,3.03l-7.989,6.309a1.972,1.972,0,0,1-3.194-1.548h0V15.836a10.638,10.638,0,0,0-7.255,3.806.75.75,0,0,1-1.327-.479v-.612A10.41,10.41,0,0,1,10.332,8.3V5.721A1.972,1.972,0,0,1,12.3,3.749Zm0,15a.474.474,0,0,0,.292-.1l7.99-6.309a.429.429,0,0,0,0-.674L12.6,5.351a.467.467,0,0,0-.291-.1h0a.472.472,0,0,0-.473.472v3.23a.75.75,0,0,1-.666.745,8.912,8.912,0,0,0-7.819,7.537A12.135,12.135,0,0,1,11.07,14.3a.75.75,0,0,1,.762.75v3.227A.473.473,0,0,0,12.3,18.745Z" transform="translate(0 -1)" fill="#fff"/>
  <path id="Path_59986" data-name="Path 59986" d="M0,24V0H24V24Z" fill="none"/>
</svg>
