<svg id="user" xmlns="http://www.w3.org/2000/svg" width="44" height="44" viewBox="0 0 44 44">
  <path id="Rectangle_4383" data-name="Rectangle 4383" d="M0,0H36a8,8,0,0,1,8,8V36a8,8,0,0,1-8,8H0a0,0,0,0,1,0,0V0A0,0,0,0,1,0,0Z" transform="translate(0)" fill="#87899e" opacity="0"/>
  <g id="Group_4634" data-name="Group 4634" transform="translate(10 10)">
    <path id="Path_6016" data-name="Path 6016" d="M0,0H24V24H0Z" fill="none"/>
    <path id="Path_6017" data-name="Path 6017" d="M18,21.75h-.045a16.75,16.75,0,0,1-15.7-15.7q0-.023,0-.045A2.75,2.75,0,0,1,5,3.25H9a.75.75,0,0,1,.7.471l2,5a.75.75,0,0,1-.31.922L9.5,10.776A10.327,10.327,0,0,0,13.224,14.5l1.132-1.887a.75.75,0,0,1,.922-.31l5,2a.75.75,0,0,1,.471.7v4A2.753,2.753,0,0,1,18,21.75ZM3.75,5.98A15.266,15.266,0,0,0,18.02,20.25,1.251,1.251,0,0,0,19.25,19V15.508l-3.936-1.574-1.171,1.952a.75.75,0,0,1-.975.287,11.813,11.813,0,0,1-5.341-5.341.75.75,0,0,1,.287-.975l1.952-1.171L8.492,4.75H5A1.25,1.25,0,0,0,3.75,5.98Z" fill="#87899e"/>
  </g>
</svg>
